<svg height="88" viewBox="0 0 149 88" width="149" xmlns="http://www.w3.org/2000/svg" xmlns:xlink="http://www.w3.org/1999/xlink"><clipPath id="a"><path d="m0 0h149v88h-149z"/></clipPath><g clip-path="url(#a)"><rect fill="#002d5b" height="88" rx="11" width="149"/><g fill="#fff"><text font-family="Helvetica" font-size="16" letter-spacing=".045em" transform="translate(54 29)"><tspan x="-22.278" y="0">CHAT</tspan></text><path d="m-8.461-27.722a11.467 11.467 0 0 0 11.461-11.459 11.467 11.467 0 0 0 -11.461-11.459 11.456 11.456 0 0 0 -11.439 11.476 11.393 11.393 0 0 0 1.374 5.446l-2.099 6.718 6.717-2.113a11.558 11.558 0 0 0 5.447 1.391zm0-1.718a9.473 9.473 0 0 1 -5.223-1.529l-4.329 1.357 1.34-4.312a9.68 9.68 0 0 1 -1.512-5.24 9.733 9.733 0 0 1 9.724-9.758 9.744 9.744 0 0 1 9.741 9.741 9.744 9.744 0 0 1 -9.741 9.741zm-3.316-9.741a1.422 1.422 0 0 0 -1.423-1.426 1.419 1.419 0 0 0 -1.409 1.426 1.415 1.415 0 0 0 1.409 1.409 1.419 1.419 0 0 0 1.423-1.409zm4.742 0a1.422 1.422 0 0 0 -1.426-1.426 1.419 1.419 0 0 0 -1.409 1.426 1.415 1.415 0 0 0 1.409 1.409 1.419 1.419 0 0 0 1.426-1.409zm4.742 0a1.422 1.422 0 0 0 -1.427-1.426 1.419 1.419 0 0 0 -1.409 1.426 1.415 1.415 0 0 0 1.409 1.409 1.419 1.419 0 0 0 1.426-1.409z" transform="translate(110.625 61)"/></g></g></svg>