<svg xmlns="http://www.w3.org/2000/svg" xmlns:xlink="http://www.w3.org/1999/xlink" width="25" height="24.492" viewBox="0 0 25 24.492">
  <defs>
    <clipPath id="clip-path">
      <rect width="25" height="24.492" fill="none"/>
    </clipPath>
  </defs>
  <g id="plus002_-_E001" data-name="plus002 - E001" clip-path="url(#clip-path)">
    <path id="plus002_-_E001-2" data-name="plus002 - E001" d="M4.519-42.021a12.666,12.666,0,0,0-2.673-3.9,12.962,12.962,0,0,0-3.981-2.619A12.579,12.579,0,0,0-7-49.5a12.578,12.578,0,0,0-4.865.961,12.962,12.962,0,0,0-3.981,2.619,12.666,12.666,0,0,0-2.673,3.9,11.893,11.893,0,0,0-.981,4.766,11.893,11.893,0,0,0,.981,4.766,12.666,12.666,0,0,0,2.673,3.9,12.962,12.962,0,0,0,3.981,2.619A12.578,12.578,0,0,0-7-25.008a12.578,12.578,0,0,0,4.865-.961,12.962,12.962,0,0,0,3.981-2.619,12.666,12.666,0,0,0,2.673-3.9A11.893,11.893,0,0,0,5.5-37.254,11.893,11.893,0,0,0,4.519-42.021Zm-5.1,5.708H-6.038v5.332H-7.962v-5.332H-13.4V-38.2h5.442v-5.351h1.923V-38.2H-.577Z" transform="translate(19.5 49.5)" fill="#002d5b"/>
  </g>
</svg>
