<svg height="180" viewBox="0 0 179 180" width="179" xmlns="http://www.w3.org/2000/svg" xmlns:xlink="http://www.w3.org/1999/xlink"><clipPath id="a"><path d="m0 0h179v180h-179z"/></clipPath><g clip-path="url(#a)" opacity=".431"><g fill="#f7f7f7" stroke="#707070" stroke-dasharray="1 4"><path d="m0 0h23.429v23.429h-23.429z" stroke="none"/><path d="m.5.5h22.429v22.429h-22.429z" fill="none"/></g><text fill="#002d5b" font-family="ArialMT, Arial MT" font-size="8" transform="translate(10.81 14.029)"><tspan x="-3.332" y="0">M</tspan></text><g fill="#f7f7f7" stroke="#707070" stroke-dasharray="1 4" transform="translate(23.429)"><path d="m0 0h23.429v23.429h-23.429z" stroke="none"/><path d="m.5.5h22.429v22.429h-22.429z" fill="none"/></g><text fill="#002d5b" font-family="ArialMT, Arial MT" font-size="8" transform="translate(34.8 14.029)"><tspan x="-2.443" y="0">T</tspan></text><g fill="#f7f7f7" stroke="#707070" stroke-dasharray="1 4" transform="translate(46.857)"><path d="m0 0h23.429v23.429h-23.429z" stroke="none"/><path d="m.5.5h22.429v22.429h-22.429z" fill="none"/></g><text fill="#002d5b" font-family="ArialMT, Arial MT" font-size="7" transform="translate(57.667 13.029)"><tspan x="-3.303" y="0">W</tspan></text><g fill="#f7f7f7" stroke="#707070" stroke-dasharray="1 4" transform="translate(70.286)"><path d="m0 0h23.429v23.429h-23.429z" stroke="none"/><path d="m.5.5h22.429v22.429h-22.429z" fill="none"/></g><text fill="#002d5b" font-family="ArialMT, Arial MT" font-size="8" transform="translate(81.657 14.029)"><tspan x="-2.443" y="0">T</tspan></text><g fill="#f7f7f7" stroke="#707070" stroke-dasharray="1 4" transform="translate(93.714)"><path d="m0 0h23.429v23.429h-23.429z" stroke="none"/><path d="m.5.5h22.429v22.429h-22.429z" fill="none"/></g><text fill="#002d5b" font-family="ArialMT, Arial MT" font-size="8" transform="translate(105.086 14.029)"><tspan x="-2.443" y="0">F</tspan></text><g fill="#f7f7f7" stroke="#707070" stroke-dasharray="1 4" transform="translate(117.143)"><path d="m0 0h23.429v23.429h-23.429z" stroke="none"/><path d="m.5.5h22.429v22.429h-22.429z" fill="none"/></g><text fill="#002d5b" font-family="ArialMT, Arial MT" font-size="8" transform="translate(128.733 14.029)"><tspan x="-2.668" y="0">S</tspan></text><g fill="#f7f7f7" stroke="#707070" stroke-dasharray="1 4" transform="translate(140.571)"><path d="m0 0h23.429v23.429h-23.429z" stroke="none"/><path d="m.5.5h22.429v22.429h-22.429z" fill="none"/></g><text fill="#002d5b" font-family="ArialMT, Arial MT" font-size="8" transform="translate(152.162 14.029)"><tspan x="-2.668" y="0">S</tspan></text><g fill="none" stroke="#707070" stroke-dasharray="1 4"><g transform="translate(0 23.429)"><path d="m0 0h23.429v23.429h-23.429z" stroke="none"/><path d="m.5.5h22.429v22.429h-22.429z" fill="none"/></g><g transform="translate(23.429 23.429)"><path d="m0 0h23.429v23.429h-23.429z" stroke="none"/><path d="m.5.5h22.429v22.429h-22.429z" fill="none"/></g><g transform="translate(-14.571 46.857)"><path d="m0 0h61.429v35.429h-61.429z" stroke="none"/><path d="m.5.5h60.429v34.429h-60.429z" fill="none"/></g><g transform="translate(70.286 23.429)"><path d="m0 0h23.429v23.429h-23.429z" stroke="none"/><path d="m.5.5h22.429v22.429h-22.429z" fill="none"/></g><g transform="translate(93.714 23.429)"><path d="m0 0h23.429v23.429h-23.429z" stroke="none"/><path d="m.5.5h22.429v22.429h-22.429z" fill="none"/></g><g transform="translate(117.143 23.429)"><path d="m0 0h23.429v23.429h-23.429z" stroke="none"/><path d="m.5.5h22.429v22.429h-22.429z" fill="none"/></g><g transform="translate(140.571 23.429)"><path d="m0 0h23.429v23.429h-23.429z" stroke="none"/><path d="m.5.5h22.429v22.429h-22.429z" fill="none"/></g><g transform="translate(0 46.857)"><path d="m0 0h23.429v23.429h-23.429z" stroke="none"/><path d="m.5.5h22.429v22.429h-22.429z" fill="none"/></g><g transform="translate(23.429 46.857)"><path d="m0 0h23.429v23.429h-23.429z" stroke="none"/><path d="m.5.5h22.429v22.429h-22.429z" fill="none"/></g><g transform="translate(46.857 46.857)"><path d="m0 0h23.429v23.429h-23.429z" stroke="none"/><path d="m.5.5h22.429v22.429h-22.429z" fill="none"/></g><g transform="translate(70.286 46.857)"><path d="m0 0h23.429v23.429h-23.429z" stroke="none"/><path d="m.5.5h22.429v22.429h-22.429z" fill="none"/></g><g transform="translate(93.714 46.857)"><path d="m0 0h23.429v23.429h-23.429z" stroke="none"/><path d="m.5.5h22.429v22.429h-22.429z" fill="none"/></g><g transform="translate(117.143 46.857)"><path d="m0 0h23.429v23.429h-23.429z" stroke="none"/><path d="m.5.5h22.429v22.429h-22.429z" fill="none"/></g><g transform="translate(140.571 46.857)"><path d="m0 0h23.429v23.429h-23.429z" stroke="none"/><path d="m.5.5h22.429v22.429h-22.429z" fill="none"/></g><g transform="translate(0 70.286)"><path d="m0 0h23.429v23.429h-23.429z" stroke="none"/><path d="m.5.5h22.429v22.429h-22.429z" fill="none"/></g><g transform="translate(23.429 70.286)"><path d="m0 0h23.429v23.429h-23.429z" stroke="none"/><path d="m.5.5h22.429v22.429h-22.429z" fill="none"/></g><g transform="translate(46.857 70.286)"><path d="m0 0h23.429v23.429h-23.429z" stroke="none"/><path d="m.5.5h22.429v22.429h-22.429z" fill="none"/></g><g transform="translate(70.286 70.286)"><path d="m0 0h23.429v23.429h-23.429z" stroke="none"/><path d="m.5.5h22.429v22.429h-22.429z" fill="none"/></g><g transform="translate(93.714 70.286)"><path d="m0 0h23.429v23.429h-23.429z" stroke="none"/><path d="m.5.5h22.429v22.429h-22.429z" fill="none"/></g><g transform="translate(117.143 70.286)"><path d="m0 0h23.429v23.429h-23.429z" stroke="none"/><path d="m.5.5h22.429v22.429h-22.429z" fill="none"/></g><g transform="translate(140.571 70.286)"><path d="m0 0h23.429v23.429h-23.429z" stroke="none"/><path d="m.5.5h22.429v22.429h-22.429z" fill="none"/></g><g transform="translate(0 93.714)"><path d="m0 0h23.429v23.429h-23.429z" stroke="none"/><path d="m.5.5h22.429v22.429h-22.429z" fill="none"/></g><g transform="translate(23.429 93.714)"><path d="m0 0h23.429v23.429h-23.429z" stroke="none"/><path d="m.5.5h22.429v22.429h-22.429z" fill="none"/></g><g transform="translate(46.857 93.714)"><path d="m0 0h23.429v23.429h-23.429z" stroke="none"/><path d="m.5.5h22.429v22.429h-22.429z" fill="none"/></g><g transform="translate(70.286 93.714)"><path d="m0 0h23.429v23.429h-23.429z" stroke="none"/><path d="m.5.5h22.429v22.429h-22.429z" fill="none"/></g><g transform="translate(93.714 93.714)"><path d="m0 0h23.429v23.429h-23.429z" stroke="none"/><path d="m.5.5h22.429v22.429h-22.429z" fill="none"/></g><g transform="translate(117.143 93.714)"><path d="m0 0h23.429v23.429h-23.429z" stroke="none"/><path d="m.5.5h22.429v22.429h-22.429z" fill="none"/></g><g transform="translate(140.571 93.714)"><path d="m0 0h23.429v23.429h-23.429z" stroke="none"/><path d="m.5.5h22.429v22.429h-22.429z" fill="none"/></g><g transform="translate(0 117.143)"><path d="m0 0h23.429v23.429h-23.429z" stroke="none"/><path d="m.5.5h22.429v22.429h-22.429z" fill="none"/></g><g transform="translate(23.429 117.143)"><path d="m0 0h23.429v23.429h-23.429z" stroke="none"/><path d="m.5.5h22.429v22.429h-22.429z" fill="none"/></g><g transform="translate(46.857 117.143)"><path d="m0 0h23.429v23.429h-23.429z" stroke="none"/><path d="m.5.5h22.429v22.429h-22.429z" fill="none"/></g><g transform="translate(70.286 117.143)"><path d="m0 0h23.429v23.429h-23.429z" stroke="none"/><path d="m.5.5h22.429v22.429h-22.429z" fill="none"/></g><g transform="translate(93.714 117.143)"><path d="m0 0h23.429v23.429h-23.429z" stroke="none"/><path d="m.5.5h22.429v22.429h-22.429z" fill="none"/></g><g transform="translate(117.143 117.143)"><path d="m0 0h23.429v23.429h-23.429z" stroke="none"/><path d="m.5.5h22.429v22.429h-22.429z" fill="none"/></g><g transform="translate(140.571 117.143)"><path d="m0 0h23.429v23.429h-23.429z" stroke="none"/><path d="m.5.5h22.429v22.429h-22.429z" fill="none"/></g></g></g></svg>