<svg xmlns="http://www.w3.org/2000/svg" width="36.245" height="50.895" viewBox="0 0 36.245 50.895">
  <path id="SkylarMG_Icon_KO_2019-01" d="M19.378,23.411s-.55.354-1.918-1.613-2.224-2.334-3.788-4.35a11,11,0,0,1-1.515-4.069c-.2-.77-1.222-2.248-.831-2.554s-1.6-2.26-.99-2.444c.354-.1.4,0,.33-.122-.538-1.087-1.894-2.053-1.539-2.444S11.656,8.26,12.01,8.26,8.919,4.2,8.87,3.642s1.417.965,1.613,1.014S8.516,2.481,9.029,2.285s1.417.55,3.384,2.627S23.9,16.239,25.059,16.935s4.447,2.578,5.156,5.51.086,5.242.55,5.938,1.576-.073,2.444.232,1.222.611.867,3.079-.159,2.236,1.149,2.59,1.32.648,2.077.428.635-.44,1.8-.806a4.069,4.069,0,0,1,3.507.88,4.144,4.144,0,0,0,.244.342c.367.281.953.354,1.637.794s.867.892.257.88a4,4,0,0,0-1.93.257c-.66.305-3.665,3.238-5.009,3.739s-6.134,2.028-6.781,2.688A6.952,6.952,0,0,1,29.189,45.2c-.855.513-2.15.855-2.273,2.126-.379,3.861-2.053,5.437-2.761,5.828a9.066,9.066,0,0,1-4.545-1.686c-1.332-1.222-.819.11-1.808-.538a4.032,4.032,0,0,1-.709-.635c-.171-.171.208-.318.086-.44s-.33.183-.428,0,.464-.464.342-.843c0-.183-.9.257-1.112,0-.867-.806-1.222-2.114-1.552-4.276a12.218,12.218,0,0,1-.171-3.543c0-.281.77-.22.77-.44s-.733-.33-.806-.586.061-.367.611-.33c1.368.1,6.512,1.051,7.93.452.513-.305.4-.758,0-.758s-1.356.648-1.1-1.625c-2.211.4-2.138.562-1.723-.733s.99-2.444-.232-6.353-.525-4.02-1.588-5.107,1.222-2.358,1.222-2.358" transform="translate(-8.869 -2.255)" fill="#fff"/>
</svg>
