<svg xmlns="http://www.w3.org/2000/svg" xmlns:xlink="http://www.w3.org/1999/xlink" width="11.722" height="12.769" viewBox="0 0 11.722 12.769">
  <defs>
    <clipPath id="clip-path">
      <rect width="11.722" height="12.769" fill="none"/>
    </clipPath>
    <filter id="Path_3" x="-3.389" y="-3.182" width="18.587" height="19.421" filterUnits="userSpaceOnUse">
      <feOffset input="SourceAlpha"/>
      <feGaussianBlur stdDeviation="1.5" result="blur"/>
      <feFlood flood-color="#fff"/>
      <feComposite operator="in" in2="blur"/>
      <feComposite in="SourceGraphic"/>
    </filter>
  </defs>
  <g id="Component_10_10" data-name="Component 10 – 10" clip-path="url(#clip-path)">
    <g transform="matrix(1, 0, 0, 1, 0, 0)" filter="url(#Path_3)">
      <path id="Path_3-2" data-name="Path 3" d="M8.768,18.1h.677c.457,0,.567-.037.786-.365l2.359-3.323,2.377,3.323c.219.31.329.365.786.365h.695c.475,0,.567-.164.329-.493l-3.163-4.345,2.962-4.09c.219-.31.146-.493-.293-.493H15.57c-.457,0-.53.055-.75.365l-2.212,3.031L10.377,9.045c-.2-.292-.311-.365-.786-.365H8.933c-.512,0-.549.219-.329.493l3,4.09L8.457,17.608C8.22,17.937,8.274,18.1,8.768,18.1Z" transform="translate(-6.71 -6.86)" fill="#002d5b" stroke="#002d5b" stroke-linecap="round" stroke-linejoin="round" stroke-width="1"/>
    </g>
  </g>
</svg>
