<svg xmlns="http://www.w3.org/2000/svg" xmlns:xlink="http://www.w3.org/1999/xlink" width="7" height="11" viewBox="0 0 7 11"><defs><style>.a{fill:none;}.b{clip-path:url(#a);}.c{fill:#002d5b;}</style><clipPath id="a"><rect class="a" width="7" height="11"/></clipPath></defs><g class="b"><path class="c" d="M3.695-1.32h.849c.358,0,.477-.119.477-.477V-2.42a2.737,2.737,0,0,0,2.572-2.7c0-2.28-1.8-2.545-3.262-2.69-.915-.093-1.671-.252-1.671-.835,0-.623.451-.835,1.445-.835a1.378,1.378,0,0,1,1.405.808c.2.384.371.437.729.278l.769-.345c.411-.186.491-.384.3-.755a2.926,2.926,0,0,0-2.294-1.776v-.57c0-.358-.119-.477-.477-.477H3.695c-.358,0-.477.119-.477.477v.57A2.607,2.607,0,0,0,.672-8.649c0,2.187,1.816,2.545,3.288,2.69.928.093,1.684.239,1.684.875,0,.689-.583.941-1.618.941A1.44,1.44,0,0,1,2.5-5.018c-.159-.411-.331-.49-.729-.345L1-5.084c-.371.133-.491.345-.358.716A3.075,3.075,0,0,0,3.217-2.393v.6C3.217-1.439,3.337-1.32,3.695-1.32Z" transform="translate(-0.593 12.32)"/></g></svg>