<svg xmlns="http://www.w3.org/2000/svg" width="24.238" height="18.65" viewBox="0 0 24.238 18.65">
  <path id="Icon_ionic-ios-backspace" data-name="Icon ionic-ios-backspace" d="M23.593,6.75H13.979c-2.721,0-4.265,2.022-5.943,3.7s-4.2,4.352-4.2,4.352a1.832,1.832,0,0,0-.46,1.218,1.87,1.87,0,0,0,.46,1.224s2,2.191,4.2,4.4,3.3,3.758,5.943,3.758h9.614a4.091,4.091,0,0,0,4.02-4.137V10.77A3.991,3.991,0,0,0,23.593,6.75ZM22.561,19.143a.931.931,0,0,1-1.317,1.317l-3.071-3.07L15.1,20.459a.925.925,0,0,1-1.317,0,.9.9,0,0,1,0-1.317l3.071-3.07L13.787,13a.9.9,0,0,1,0-1.317.891.891,0,0,1,1.317,0l3.071,3.07,3.071-3.07A.931.931,0,0,1,22.561,13l-3.071,3.07Z" transform="translate(-3.375 -6.75)" fill="#002d5b"/>
</svg>
